Coordinates
version=1
nRows=14
nColumns=40
inDegrees=yes

Units are S.I. units (second, meters, Newtons, ...)
Angles are in degrees.

endheader
time	pelvis_tilt	pelvis_list	pelvis_rotation	pelvis_tx	pelvis_ty	pelvis_tz	hip_flexion_r	hip_adduction_r	hip_rotation_r	knee_angle_r	knee_angle_r_beta	ankle_angle_r	subtalar_angle_r	mtp_angle_r	hip_flexion_l	hip_adduction_l	hip_rotation_l	knee_angle_l	knee_angle_l_beta	ankle_angle_l	subtalar_angle_l	mtp_angle_l	lumbar_extension	lumbar_bending	lumbar_rotation	arm_flex_r	arm_add_r	arm_rot_r	elbow_flex_r	pro_sup_r	wrist_flex_r	wrist_dev_r	arm_flex_l	arm_add_l	arm_rot_l	elbow_flex_l	pro_sup_l	wrist_flex_l	wrist_dev_l
      0.89000000	      0.80665039	     -3.98427029	      4.39473012	     -0.51326588	      0.89447892	      0.99767389	     17.39654550	      3.85124597	    -17.62214994	    -19.95392484	     -0.34826169	     -2.00178851	     -2.18491447	     -0.28197826	     -8.07381430	      6.45762745	      9.18126981	    -29.96127502	     -0.52292290	      0.78927980	     -8.76594304	     -4.83428418	     -7.81770825	      6.58095925	     -4.16562961	      3.92574149	     -8.42759721	     15.83312230	     12.98882543	     89.95437384	      0.00000000	      0.00000000	      9.20835869	      9.02334788	    -13.79969127	     25.01969802	     89.95437384	      0.00000000	      0.00000000
      0.90000000	      0.77973459	     -3.84876720	      4.53714780	     -0.50490511	      0.89519532	      0.99880632	     16.80350462	      3.81767650	    -17.72549381	    -19.99093316	     -0.34890760	     -1.25133773	     -1.96666402	     -0.36787897	     -7.17310041	      6.67623234	      9.02937660	    -32.05068537	     -0.55938999	     -1.07422381	     -8.09763484	     -4.56995122	     -7.73489116	      6.39879391	     -4.12495558	      3.91556873	     -8.44226144	     15.92302297	     13.05531599	     89.95437384	      0.00000000	      0.00000000	      8.77669953	      8.86809520	    -13.99913632	     24.14081736	     89.95437384	      0.00000000	      0.00000000
      0.91000000	      0.28903115	     -4.36236016	      4.98841382	     -0.49666330	      0.89475480	      1.00013895	     16.79196252	      4.33348415	    -18.47976211	    -20.02225374	     -0.34945425	     -0.57356204	     -1.19927103	     -0.48793926	     -5.31002371	      7.94823905	      9.17907627	    -34.72597673	     -0.60608263	     -3.65522771	     -8.79388889	     -4.70134352	     -6.98137744	      6.87907079	     -4.36839150	      3.76757935	     -8.58462215	     16.30998978	     13.31929305	     89.95437384	      0.00000000	      0.00000000	      8.26231254	      8.79831821	    -14.72290082	     23.24979463	     89.95437384	      0.00000000	      0.00000000
      0.92000000	      0.37143834	     -4.33042601	      5.15109468	     -0.48861811	      0.89522409	      1.00141022	     16.13877680	      4.41287148	    -18.63584971	    -20.11698723	     -0.35110766	      0.20907729	     -1.00269627	     -0.59339280	     -4.34405340	      8.33274434	      9.03436296	    -36.88317419	     -0.64373283	     -5.92012410	     -7.67334445	     -4.44017504	     -7.05377175	      6.78696420	     -4.28428852	      3.85748206	     -8.63062070	     16.48376322	     13.42954217	     89.95437384	      0.00000000	      0.00000000	      7.93274122	      8.67767601	    -14.95864368	     22.37070802	     89.95437384	      0.00000000	      0.00000000
      0.93000000	      0.36434076	     -4.47662010	      5.26318295	     -0.48043660	      0.89530617	      1.00280544	     15.58763382	      4.66707896	    -18.94204991	    -20.18574489	     -0.35230771	      0.88360562	     -0.53937451	     -0.73216512	     -3.17874427	      8.91717536	      8.92234698	    -39.13761419	     -0.68308023	     -8.12036030	     -6.59335643	     -4.32056084	     -6.98060625	      6.87771691	     -4.07104330	      3.82474598	     -8.78069155	     16.75976870	     13.72640193	     89.95437384	      0.00000000	      0.00000000	      7.56492744	      8.53771258	    -15.28570141	     21.55565086	     89.95437384	      0.00000000	      0.00000000
      0.94000000	      0.45598372	     -4.61544240	      5.42871411	     -0.47261500	      0.89538961	      1.00408113	     14.96752901	      4.91030318	    -19.27442689	    -20.28673677	     -0.35407035	      1.56486106	     -0.12810286	     -0.88015313	     -2.02043165	      9.46823654	      8.69622863	    -41.38960802	     -0.72238494	     -9.84210239	     -5.52246337	     -4.28859987	     -7.05849766	      6.97747061	     -3.87874874	      3.91939368	     -8.93261185	     17.10175899	     13.94770552	     89.95437384	      0.00000000	      0.00000000	      7.31577822	      8.39069604	    -15.56917030	     20.67472740	     89.95437384	      0.00000000	      0.00000000
      0.95000000	      0.48259156	     -4.84844600	      5.63691076	     -0.46493742	      0.89515755	      1.00533906	     14.44792490	      5.22851559	    -19.63996495	    -20.38434778	     -0.35577398	      2.17556405	      0.44723248	     -1.06371137	     -0.65267508	     10.14100352	      8.54455745	    -43.75905183	     -0.76373953	    -10.26051587	     -4.26125540	     -4.63767123	     -7.05308546	      7.15654932	     -3.73307560	      3.97682665	     -9.14288057	     17.69120768	     14.32725091	     89.95437384	      0.00000000	      0.00000000	      7.03489844	      8.30972082	    -15.94901084	     19.90796238	     89.95437384	      0.00000000	      0.00000000
      0.96000000	      0.85126539	     -4.64298544	      5.53491755	     -0.45753171	      0.89556355	      1.00650882	     13.58984836	      5.14117721	    -19.68582524	    -20.60974182	     -0.35970785	      2.59596527	      0.49486683	     -1.12899883	      0.06801795	     10.25591410	      8.67208202	    -45.67446536	     -0.79716980	    -10.06203827	     -3.59534655	     -4.70692334	     -7.60166626	      6.90407577	     -3.31406084	      4.32233057	     -9.25108650	     17.82877185	     14.45439704	     89.95437384	      0.00000000	      0.00000000	      6.78152041	      8.22662311	    -16.03236595	     19.37849285	     89.95437384	      0.00000000	      0.00000000
      0.97000000	      0.94874177	     -5.27450818	      5.90870449	     -0.45005598	      0.89526379	      1.00744563	     12.90749115	      5.96403403	    -20.02302048	    -20.39735535	     -0.35600101	      3.37438087	      1.03733753	     -1.34385616	      1.53571972	     11.25570473	      8.30504024	    -47.97166462	     -0.83726350	     -8.51056731	     -0.57236178	     -5.11343158	     -7.60049230	      7.58040304	     -3.25708026	      4.43985049	     -9.62661150	     18.70370795	     14.89713121	     89.95437384	      0.00000000	      0.00000000	      6.63465849	      8.03563089	    -16.49766103	     18.40698668	     89.95437384	      0.00000000	      0.00000000
      0.98000000	      1.32663859	     -5.36647085	      6.10409609	     -0.44274155	      0.89555619	      1.00830254	     11.98233136	      6.22698001	    -20.09164515	    -20.43149107	     -0.35659679	      3.99510569	      1.18087881	     -1.48508617	      2.48958415	     11.63968756	      8.17567973	    -49.81274920	     -0.86939648	     -7.41415877	      1.56462504	     -5.48226445	     -8.04500449	      7.66440853	     -3.02967386	      4.74795814	     -9.87276161	     19.43445287	     15.09750213	     89.95437384	      0.00000000	      0.00000000	      6.47942898	      7.93794792	    -16.71015223	     17.74167531	     89.95437384	      0.00000000	      0.00000000
      0.99000000	      1.80447321	     -5.42847807	      6.23072592	     -0.43532332	      0.89607108	      1.00922606	     10.95484087	      6.50389215	    -20.05764147	    -20.48429811	     -0.35751845	      4.63198289	      1.19243143	     -1.58900299	      3.22764246	     11.99022509	      8.12189596	    -51.28910043	     -0.89516367	     -6.73890195	      2.76362276	     -5.66964316	     -8.57556018	      7.72317243	     -2.74743587	      5.18912219	    -10.00499098	     19.84342034	     15.00506319	     89.95437384	      0.00000000	      0.00000000	      6.31932029	      7.85078884	    -16.85008753	     17.07638017	     89.95437384	      0.00000000	      0.00000000
      1.00000000	      2.12521535	     -5.14773913	      6.12507078	     -0.42798449	      0.89654990	      1.01021521	     10.08414718	      6.35720044	    -20.04662216	    -20.57625727	     -0.35912344	      4.85781904	      1.15250858	     -1.60719668	      4.01190655	     11.91774851	      8.29602808	    -52.53313807	     -0.91687623	     -6.46609942	      3.18623533	     -5.69173853	     -9.01526270	      7.36011805	     -2.23329945	      5.52407859	    -10.12191078	     19.94266377	     15.08330231	     89.95437384	      0.00000000	      0.00000000	      6.00815224	      7.86549359	    -16.83948067	     16.87234591	     89.95437384	      0.00000000	      0.00000000
      1.01000000	      2.68490294	     -5.21663961	      6.31469126	     -0.42066350	      0.89736989	      1.01084917	      8.81405405	      6.72017547	    -19.80871062	    -20.29889398	     -0.35428253	      5.48786936	      1.12979342	     -1.81537905	      4.64570250	     11.94298905	      7.77649945	    -53.56761006	     -0.93493117	     -5.65722756	      6.03314734	     -7.00746616	     -9.58507549	      7.45720127	     -1.98987816	      5.91629096	    -10.54625107	     21.82215935	     15.32471061	     89.95437384	      0.00000000	      0.00000000	      5.85105948	      7.81403125	    -17.02251621	     16.31557068	     89.95437384	      0.00000000	      0.00000000
      1.02000000	      2.93295772	     -4.96252058	      6.22627960	     -0.41342426	      0.89783827	      1.01177178	      8.04385227	      6.58752522	    -19.75778442	    -20.40566922	     -0.35614611	      5.69497212	      1.09612753	     -1.82829896	      5.47768570	     11.77620796	      7.83470141	    -54.36445583	     -0.94883875	     -5.49989536	      6.02761648	     -7.01781476	     -9.88209013	      7.12140164	     -1.47359262	      6.27992266	    -10.64933894	     21.82408356	     15.29004858	     89.95437384	      0.00000000	      0.00000000	      5.56786104	      7.86032121	    -16.97658362	     16.14826921	     89.95437384	      0.00000000	      0.00000000
